<svg width="58" height="14" viewBox="0 0 58 14" fill="none" xmlns="http://www.w3.org/2000/svg">
<path d="M31.2449 4.22849C31.1497 4.2846 30.7478 4.6316 30.7285 4.60709C30.6944 4.56441 30.7587 3.97713 30.7277 3.97713H29.1807V13.5838H30.7277V9.96135C33.337 12.1587 36.4411 9.48947 35.7334 6.40054C35.2526 4.30357 33.1705 3.08871 31.2449 4.22849ZM33.3347 9.1907C31.5058 10.1368 30.0208 7.84937 30.8957 6.15551C31.1079 5.7445 31.6444 5.25444 32.0989 5.17619C34.4837 4.76438 35.2177 8.21612 33.3347 9.1907Z" fill="#FF4647"/>
<path d="M17.6574 9.33113V6.18134H21.5241V4.76413H17.6574V2.40158H21.5241V0.984375H16.1104V10.7096C16.1104 10.7183 16.218 10.8274 16.2265 10.8274H21.0216C21.2795 10.4061 21.6449 10.0085 21.8966 9.59276C21.9492 9.50581 22.0096 9.44574 21.9879 9.33192H17.6566L17.6574 9.33113Z" fill="#FF4647"/>
<path d="M40.7412 5.23565C38.3038 8.274 42.2495 12.592 45.2684 10.0817C45.6161 9.79238 46.069 9.30628 46.1953 8.85891H44.6095C44.5816 8.85891 44.2712 9.12844 44.1597 9.1893C43.0191 9.80819 41.8182 9.15926 41.4001 7.9934H46.5042C47.1081 4.60648 42.9711 2.45656 40.7412 5.23565ZM41.4001 6.81174C42.0157 4.83333 44.5662 4.84282 45.1895 6.81174H41.4001Z" fill="#FF4647"/>
<path d="M26.6303 3.97707C26.6203 3.97707 26.611 4.098 26.5583 4.17546C26.2409 4.63864 25.9381 5.12316 25.6114 5.57765C25.5285 5.69384 25.3303 6.02661 25.2002 6.02503C24.9873 5.7966 23.925 4.01184 23.8073 3.97707C23.4225 3.86246 22.3051 4.00417 22.0675 3.97707C21.8299 3.94997 24.3655 7.40272 24.3655 7.40272L22.0675 10.8284H23.7306C23.8839 10.8284 25.1267 8.70532 25.2776 8.70294C25.4054 8.70136 26.5978 10.8284 26.7472 10.8284H28.4104L26.1665 7.40509L28.4104 3.97786H26.6319L26.6303 3.97707Z" fill="#FF4647"/>
<path d="M56.2942 6.96506C55.674 6.74611 53.9366 6.76508 53.8545 5.97783C53.7585 5.05463 55.4627 4.95188 56.0736 5.49726C56.1285 5.54627 56.2215 5.78734 56.2911 5.78734H57.5672C57.2536 3.90932 54.5854 3.47459 53.2761 4.52821C51.9869 5.56603 52.4499 7.12788 53.88 7.69145C54.525 7.94517 55.1243 7.84558 55.7143 8.02895C56.2586 8.1981 56.5637 8.72056 56.0171 9.12921C55.496 9.51888 54.6218 9.48805 54.0922 9.12921C54.0179 9.07862 53.8367 8.8581 53.8173 8.8581H52.4639C52.6567 10.5472 54.7929 11.0799 56.175 10.5504C57.9992 9.85085 58.2594 7.65825 56.295 6.96506H56.2942Z" fill="#FF4647"/>
<path d="M50.3112 6.83067C49.7824 6.7042 48.3569 6.70499 48.281 5.97781C48.1858 5.06805 49.921 4.94237 50.4877 5.46958C50.5582 5.53439 50.6751 5.78653 50.7177 5.78653H51.9937C51.7312 4.1401 49.7235 3.64451 48.3592 4.1733C46.5629 4.86965 46.4506 6.90181 48.2609 7.65823C48.9655 7.95226 49.6771 7.84082 50.3104 8.09217C50.8215 8.29451 50.9244 8.78615 50.4421 9.12919C49.9024 9.51254 49.0607 9.49752 48.518 9.12919C48.4436 9.0786 48.2625 8.85808 48.2431 8.85808H46.8896C47.3124 11.0957 50.6651 11.3597 51.8273 9.59395C52.6983 8.2708 51.5857 7.13498 50.312 6.83067H50.3112Z" fill="#FF4647"/>
<path d="M9.7666 10.5594C9.7666 10.5594 9.77125 10.6701 9.8479 10.7491C9.88042 10.7823 9.86803 10.8155 9.96017 10.8282C10.153 10.8543 11.1247 10.863 11.2679 10.8171C11.309 10.8037 11.3949 10.7357 11.3949 10.7096V0.984375H9.77047L9.7666 10.5594Z" fill="#FF4647"/>
<path d="M40.8566 4.24876C40.9294 4.18158 41.0928 4.1381 41.0928 4.09463C41.0928 4.05274 40.4579 3.83854 40.3518 3.82431C39.8237 3.75238 39.1215 3.88438 38.6406 4.11913C38.4951 4.19027 37.8749 4.7238 37.8439 4.68507C37.8044 4.63606 37.8795 4.01322 37.8439 3.97607C37.7889 3.92074 36.5129 4.01796 36.2969 3.97607V10.7088C36.2969 10.7175 36.4045 10.8266 36.413 10.8266H37.8439V6.92826C37.8439 6.90613 37.9376 6.55677 37.9585 6.49432C38.1466 5.92681 38.7204 5.31661 39.3088 5.19172C39.5403 5.14272 39.9546 5.202 40.0878 5.11901C40.1575 5.07553 40.684 4.40684 40.8566 4.24797V4.24876Z" fill="#FF4647"/>
<path d="M12.9395 10.7113C12.9395 10.7199 13.0471 10.829 13.0556 10.829H14.4478C14.4563 10.829 14.5639 10.7192 14.5639 10.7113V3.97852H12.9395V10.7113Z" fill="#FF4647"/>
<path d="M6.43376 0.914062L4.73885 0.942517L3.15234 5.15305L4.16123 6.7315L4.50889 5.94504C4.50889 5.94504 5.07799 4.31679 5.3606 3.50424L7.143 9.82992C7.26224 10.2504 7.38999 10.6298 7.48059 10.7294C7.56885 10.8274 7.77636 10.8274 7.79649 10.8274H8.91766C8.69389 9.78723 6.43376 0.914062 6.43376 0.914062Z" fill="#FF4647"/>
<path d="M13.5383 1.00367C12.4288 1.20048 12.6324 2.97259 13.7396 2.92912C15.0629 2.87695 14.9823 0.748367 13.5383 1.00367Z" fill="#FF4647"/>
<path d="M1.88171 8.54297L1.10742 10.7482H2.5383C2.74116 10.7482 2.99822 10.3301 2.95254 10.0961C2.88905 9.77364 2.11476 8.84728 1.88171 8.54297Z" fill="#FF4647"/>
<path d="M7.60456 5.47436C7.45745 5.48542 5.93831 5.54787 4.39593 6.89236C4.30767 6.96982 3.96388 7.36265 3.93136 7.36265C3.8129 7.36265 2.73045 5.47436 2.61663 5.47436H0.644531L3.54422 9.80424C4.16675 8.9253 4.91703 8.22104 5.7548 7.56658C7.29872 6.35962 8.78457 5.90355 9.2112 5.73203C9.30876 5.69251 9.43962 5.68777 9.46129 5.5534C8.85039 5.48701 8.22089 5.42614 7.60456 5.47436Z" fill="#FBC22F"/>
</svg>
