<svg width="36" height="15" viewBox="0 0 36 15" fill="none" xmlns="http://www.w3.org/2000/svg">
<path d="M4.7922 3.39844C2.32205 3.39844 0.263672 4.41896 0.263672 7.49826C0.263672 9.93773 1.6478 11.4739 4.85586 11.4739C8.63199 11.4739 8.87403 9.05123 8.87403 9.05123H7.04437C7.04437 9.05123 6.65211 10.3557 4.7443 10.3557C3.19045 10.3557 2.07289 9.33338 2.07289 7.90056H9.06548V7.00132C9.06548 5.58374 8.14149 3.39844 4.7922 3.39844ZM4.7283 4.54763C6.2074 4.54763 7.21574 5.43015 7.21574 6.75284H2.1133C2.1133 5.34857 3.42956 4.54763 4.7283 4.54763Z" fill="#FE3C30"/>
<path d="M9.06401 0.416016V9.92687C9.06401 10.4667 9.02441 11.2248 9.02441 11.2248H10.7695C10.7695 11.2248 10.8322 10.6804 10.8322 10.1827C10.8322 10.1827 11.6944 11.4966 14.0389 11.4966C16.5076 11.4966 18.1846 9.8271 18.1846 7.43553C18.1846 5.21052 16.6443 3.42103 14.0429 3.42103C11.6068 3.42103 10.8499 4.7022 10.8499 4.7022V0.416016H9.06401ZM13.5924 4.59742C15.2689 4.59742 16.3351 5.8093 16.3351 7.43553C16.3351 9.1794 15.1038 10.3202 13.6045 10.3202C11.8151 10.3202 10.8499 8.95937 10.8499 7.451C10.8499 6.04549 11.7159 4.59742 13.5924 4.59742Z" fill="#006EFC"/>
<path d="M22.5225 3.39844C18.8065 3.39844 18.5682 5.38009 18.5682 5.69683H20.4178C20.4178 5.69683 20.5148 4.5399 22.395 4.5399C23.6167 4.5399 24.5635 5.08463 24.5635 6.13166V6.50437H22.395C19.5161 6.50437 17.9941 7.32465 17.9941 8.98923C17.9941 10.6273 19.4003 11.5186 21.3008 11.5186C23.8908 11.5186 24.7251 10.1248 24.7251 10.1248C24.7251 10.6792 24.7689 11.2255 24.7689 11.2255H26.4132C26.4132 11.2255 26.3495 10.5483 26.3495 10.1151V6.37046C26.3495 3.91507 24.316 3.39844 22.5225 3.39844ZM24.5635 7.6225V8.11945C24.5635 8.7676 24.1528 10.379 21.7352 10.379C20.4114 10.379 19.8438 9.73556 19.8438 8.98911C19.8438 7.63126 21.7552 7.6225 24.5635 7.6225Z" fill="#FECC02"/>
<path d="M25.3525 3.70898H27.4333L30.4197 9.53607L33.3992 3.70898H35.2842L29.8571 14.083H27.8798L29.4458 11.1911L25.3525 3.70898Z" fill="#03CF00"/>
</svg>
