<svg width="57" height="14" viewBox="0 0 57 14" fill="none" xmlns="http://www.w3.org/2000/svg">
<path d="M20.7987 7.87043H14.5101C14.8026 9.04853 15.7613 9.94225 17.0044 9.94225C17.7112 9.94225 18.3775 9.64976 18.8568 9.12165L20.3762 9.15415C19.7181 10.4379 18.4019 11.2422 16.9638 11.2422C14.8026 11.2422 13.1045 9.36539 13.1045 7.24482C13.1045 5.05925 14.7782 3.26367 16.9881 3.26367C19.1331 3.2718 20.8637 5.01863 20.8474 7.16357C20.8474 7.39919 20.8312 7.63481 20.7987 7.87043ZM16.9719 4.56364C15.7369 4.56364 14.5995 5.53862 14.5182 6.78171H19.4174C19.3362 5.53049 18.1987 4.56364 16.9719 4.56364Z" fill="#FF671D"/>
<path d="M27.0968 11.0475V6.92826C27.0968 5.64455 26.7149 4.55583 25.2037 4.55583C23.8063 4.55583 23.205 5.63642 23.205 6.91202V11.0475H21.7832V3.4671H23.1075V4.27146H23.1319C23.6763 3.54835 24.4725 3.25586 25.35 3.25586C26.4306 3.25586 27.4462 3.67835 28.0312 4.6127C28.4049 5.18956 28.5105 5.88829 28.5105 6.55452V11.0475H27.0968Z" fill="#FF671D"/>
<path d="M36.0904 11.0473V9.96672H36.066C35.4323 10.8442 34.433 11.2423 33.3849 11.2423C31.1099 11.2423 29.4443 9.54423 29.4443 7.28554C29.4443 5.02685 31.0855 3.26377 33.3849 3.26377C34.3436 3.26377 35.3511 3.62938 35.9604 4.40124H35.9848V0.923828H37.4066V11.0554H36.0904V11.0473ZM33.458 4.56373C31.9549 4.56373 30.858 5.7987 30.858 7.27742C30.858 8.69926 31.9955 9.95047 33.4499 9.95047C34.9123 9.94235 36.0985 8.748 36.0904 7.28554C36.0904 5.74995 35.0098 4.56373 33.458 4.56373Z" fill="#FF671D"/>
<path d="M41.5251 13.5841H40.0464L41.1513 10.9029L38.1289 3.46875H39.6564L41.8907 9.3511L44.1819 3.46875H45.7093L41.5251 13.5841Z" fill="#FF671D"/>
<path d="M49.7638 11.2422C47.5295 11.2422 45.6689 9.44664 45.6689 7.2042C45.6689 4.96175 47.5701 3.26367 49.7638 3.26367C51.9819 3.26367 53.8587 4.98613 53.8587 7.2367C53.8587 9.39789 52.0632 11.2422 49.7638 11.2422ZM49.7638 4.56364C48.277 4.54739 47.0664 5.74986 47.0502 7.22857C47.0339 8.71541 48.2364 9.926 49.7151 9.94225C51.2019 9.9585 52.4125 8.75603 52.4288 7.27732C52.4288 7.26107 52.4288 7.24482 52.4288 7.2367C52.4288 5.75799 51.2425 4.56364 49.7638 4.56364Z" fill="#FF671D"/>
<path d="M55.0225 11.0476V0.916016H56.4443V11.0476H55.0225Z" fill="#FF671D"/>
<path d="M2.37238 9.55158C2.42113 9.7547 2.50238 9.95782 2.608 10.1366C2.7055 10.2909 2.81925 10.4209 2.95737 10.5428C3.42861 10.949 4.03796 11.1603 4.65545 11.1359C5.30543 11.144 5.94729 10.9734 6.51602 10.6566V9.29971C6.01229 9.61658 5.43543 9.79532 4.84232 9.8197C4.11921 9.8197 3.7536 9.38096 3.7536 8.51161V4.79858H6.13416V3.48236H3.73735V1.04492H2.33176V3.48236H0.966797V4.79858H2.28301V8.16224C2.25864 8.63348 2.29114 9.09659 2.37238 9.55158Z" fill="#FF671D"/>
<path d="M10.9852 4.73504C11.424 4.73504 11.9114 4.97879 12.4233 5.46627L13.1952 4.18256C12.5696 3.6057 11.8058 3.3457 11.359 3.3457H11.2615C10.7496 3.3457 9.90463 3.3457 9.2059 4.46693L9.1734 4.51568L9.18152 3.49195H7.71094V11.0155H9.18152V7.08311C9.16527 6.49 9.36027 5.91314 9.71776 5.4419C10.0752 4.97066 10.5059 4.73504 10.9852 4.73504Z" fill="#FF671D"/>
</svg>
